<?xml version="1.0" encoding="UTF-8" standalone="no"?>
<!-- Created with Inkscape (http://www.inkscape.org/) -->

<svg
   xmlns:dc="http://purl.org/dc/elements/1.1/"
   xmlns:cc="http://creativecommons.org/ns#"
   xmlns:rdf="http://www.w3.org/1999/02/22-rdf-syntax-ns#"
   xmlns:svg="http://www.w3.org/2000/svg"
   xmlns="http://www.w3.org/2000/svg"
   xmlns:sodipodi="http://sodipodi.sourceforge.net/DTD/sodipodi-0.dtd"
   xmlns:inkscape="http://www.inkscape.org/namespaces/inkscape"
   width="210mm"
   height="297mm"
   viewBox="0 0 744.09448819 1052.3622047"
   id="svg3358"
   version="1.1"
   inkscape:version="0.91 r13725"
   sodipodi:docname="planet.svg">
  <defs
     id="defs3360" />
  <sodipodi:namedview
     id="base"
     pagecolor="#ffffff"
     bordercolor="#666666"
     borderopacity="1.0"
     inkscape:pageopacity="0.0"
     inkscape:pageshadow="2"
     inkscape:zoom="0.7"
     inkscape:cx="514.45052"
     inkscape:cy="503.89944"
     inkscape:document-units="px"
     inkscape:current-layer="layer1"
     showgrid="false"
     inkscape:window-width="1280"
     inkscape:window-height="687"
     inkscape:window-x="0"
     inkscape:window-y="0"
     inkscape:window-maximized="1" />
  <metadata
     id="metadata3363">
    <rdf:RDF>
      <cc:Work
         rdf:about="">
        <dc:format>image/svg+xml</dc:format>
        <dc:type
           rdf:resource="http://purl.org/dc/dcmitype/StillImage" />
        <dc:title></dc:title>
      </cc:Work>
    </rdf:RDF>
  </metadata>
  <g
     inkscape:label="Taso 1"
     inkscape:groupmode="layer"
     id="layer1">
    <circle
       style="fill:#2a7fff;stroke:#004455;stroke-opacity:1;stroke-width:4;stroke-miterlimit:4;stroke-dasharray:none"
       id="path4168"
       cx="357.14285"
       cy="532.36218"
       r="177.14285" />
    <g
       id="g4185"
       transform="matrix(1,0,0,0.92307634,-2.1428571,12.214976)">
      <path
         id="path4183"
         d="m 320.27148,467.13867 a 24.642857,37.142857 0 0 0 -1,-1.14648 24.642857,37.142857 0 0 0 -2.0996,-1.93946 24.642857,37.142857 0 0 0 -2.21876,-1.61523 24.642857,37.142857 0 0 0 -2.31445,-1.27344 24.642857,37.142857 0 0 0 -2.38672,-0.91797 24.642857,37.142857 0 0 0 -2.43554,-0.55468 24.642857,37.142857 0 0 0 -2.45899,-0.18555 24.642857,37.142857 0 0 0 -1.74414,0.0918 24.642857,37.142857 0 0 0 -2.44531,0.44726 24.642857,37.142857 0 0 0 -2.40235,0.81446 24.642857,37.142857 0 0 0 -2.33789,1.16992 24.642857,37.142857 0 0 0 -2.24804,1.51758 24.642857,37.142857 0 0 0 -2.13672,1.8457 24.642857,37.142857 0 0 0 -2.00391,2.16015 24.642857,37.142857 0 0 0 -1.85156,2.45118 24.642857,37.142857 0 0 0 -1.67773,2.71679 24.642857,37.142857 0 0 0 -1.49219,2.95508 24.642857,37.142857 0 0 0 -1.28711,3.16406 24.642857,37.142857 0 0 0 -1.07031,3.34375 24.642857,37.142857 0 0 0 -0.84571,3.48829 24.642857,37.142857 0 0 0 -0.60937,3.59765 24.642857,37.142857 0 0 0 -0.36719,3.66992 24.642857,37.142857 0 0 0 -0.12305,3.70899 24.642857,37.142857 0 0 0 0.0606,2.62695 24.642857,37.142857 0 0 0 0.29688,3.68555 24.642857,37.142857 0 0 0 0.54101,3.62304 24.642857,37.142857 0 0 0 0.77539,3.52344 24.642857,37.142857 0 0 0 0.66406,2.24024 24.285715,37.142857 0 0 0 15.51954,8.58593 24.285715,37.142857 0 0 0 24.28515,-37.14257 24.285715,37.142857 0 0 0 -2.58594,-16.65235 z"
         style="fill:#0055d4;stroke:none;stroke-width:4;stroke-miterlimit:4;stroke-dasharray:none;stroke-opacity:1"
         inkscape:connector-curvature="0" />
      <path
         id="path4174"
         d="m 298.57227,446.64844 a 24.285715,37.142857 0 0 0 -24.28711,37.14258 24.285715,37.142857 0 0 0 8.76757,28.55664 24.642857,37.142857 0 0 1 -0.66406,-2.24024 24.642857,37.142857 0 0 1 -0.77539,-3.52344 24.642857,37.142857 0 0 1 -0.54101,-3.62304 24.642857,37.142857 0 0 1 -0.29688,-3.68555 24.642857,37.142857 0 0 1 -0.0606,-2.62695 24.642857,37.142857 0 0 1 0.12305,-3.70899 24.642857,37.142857 0 0 1 0.36719,-3.66992 24.642857,37.142857 0 0 1 0.60937,-3.59765 24.642857,37.142857 0 0 1 0.84571,-3.48829 24.642857,37.142857 0 0 1 1.07031,-3.34375 24.642857,37.142857 0 0 1 1.28711,-3.16406 24.642857,37.142857 0 0 1 1.49219,-2.95508 24.642857,37.142857 0 0 1 1.67773,-2.71679 24.642857,37.142857 0 0 1 1.85156,-2.45118 24.642857,37.142857 0 0 1 2.00391,-2.16015 24.642857,37.142857 0 0 1 2.13672,-1.8457 24.642857,37.142857 0 0 1 2.24804,-1.51758 24.642857,37.142857 0 0 1 2.33789,-1.16992 24.642857,37.142857 0 0 1 2.40235,-0.81446 24.642857,37.142857 0 0 1 2.44531,-0.44726 24.642857,37.142857 0 0 1 1.74414,-0.0918 24.642857,37.142857 0 0 1 2.45899,0.18555 24.642857,37.142857 0 0 1 2.43554,0.55468 24.642857,37.142857 0 0 1 2.38672,0.91797 24.642857,37.142857 0 0 1 2.31445,1.27344 24.642857,37.142857 0 0 1 2.21876,1.61523 24.642857,37.142857 0 0 1 2.0996,1.93946 24.642857,37.142857 0 0 1 1,1.14648 24.285715,37.142857 0 0 0 -21.69921,-20.49023 z"
         style="fill:#003380;stroke:none;stroke-width:4;stroke-miterlimit:4;stroke-dasharray:none;stroke-opacity:1"
         inkscape:connector-curvature="0" />
    </g>
    <g
       id="g4211"
       transform="matrix(0.77941577,0,0,0.75961356,8.3601284,198.08251)">
      <path
         style="fill:#0055d4;stroke:none;stroke-width:4;stroke-miterlimit:4;stroke-dasharray:none;stroke-opacity:1"
         d="m 320.27148,467.13867 a 24.642857,37.142857 0 0 0 -1,-1.14648 24.642857,37.142857 0 0 0 -2.0996,-1.93946 24.642857,37.142857 0 0 0 -2.21876,-1.61523 24.642857,37.142857 0 0 0 -2.31445,-1.27344 24.642857,37.142857 0 0 0 -2.38672,-0.91797 24.642857,37.142857 0 0 0 -2.43554,-0.55468 24.642857,37.142857 0 0 0 -2.45899,-0.18555 24.642857,37.142857 0 0 0 -1.74414,0.0918 24.642857,37.142857 0 0 0 -2.44531,0.44726 24.642857,37.142857 0 0 0 -2.40235,0.81446 24.642857,37.142857 0 0 0 -2.33789,1.16992 24.642857,37.142857 0 0 0 -2.24804,1.51758 24.642857,37.142857 0 0 0 -2.13672,1.8457 24.642857,37.142857 0 0 0 -2.00391,2.16015 24.642857,37.142857 0 0 0 -1.85156,2.45118 24.642857,37.142857 0 0 0 -1.67773,2.71679 24.642857,37.142857 0 0 0 -1.49219,2.95508 24.642857,37.142857 0 0 0 -1.28711,3.16406 24.642857,37.142857 0 0 0 -1.07031,3.34375 24.642857,37.142857 0 0 0 -0.84571,3.48829 24.642857,37.142857 0 0 0 -0.60937,3.59765 24.642857,37.142857 0 0 0 -0.36719,3.66992 24.642857,37.142857 0 0 0 -0.12305,3.70899 24.642857,37.142857 0 0 0 0.0606,2.62695 24.642857,37.142857 0 0 0 0.29688,3.68555 24.642857,37.142857 0 0 0 0.54101,3.62304 24.642857,37.142857 0 0 0 0.77539,3.52344 24.642857,37.142857 0 0 0 0.66406,2.24024 24.285715,37.142857 0 0 0 15.51954,8.58593 24.285715,37.142857 0 0 0 24.28515,-37.14257 24.285715,37.142857 0 0 0 -2.58594,-16.65235 z"
         id="path4213"
         inkscape:connector-curvature="0" />
      <path
         style="fill:#003380;stroke:none;stroke-width:4;stroke-miterlimit:4;stroke-dasharray:none;stroke-opacity:1"
         d="m 298.57227,446.64844 a 24.285715,37.142857 0 0 0 -24.28711,37.14258 24.285715,37.142857 0 0 0 8.76757,28.55664 24.642857,37.142857 0 0 1 -0.66406,-2.24024 24.642857,37.142857 0 0 1 -0.77539,-3.52344 24.642857,37.142857 0 0 1 -0.54101,-3.62304 24.642857,37.142857 0 0 1 -0.29688,-3.68555 24.642857,37.142857 0 0 1 -0.0606,-2.62695 24.642857,37.142857 0 0 1 0.12305,-3.70899 24.642857,37.142857 0 0 1 0.36719,-3.66992 24.642857,37.142857 0 0 1 0.60937,-3.59765 24.642857,37.142857 0 0 1 0.84571,-3.48829 24.642857,37.142857 0 0 1 1.07031,-3.34375 24.642857,37.142857 0 0 1 1.28711,-3.16406 24.642857,37.142857 0 0 1 1.49219,-2.95508 24.642857,37.142857 0 0 1 1.67773,-2.71679 24.642857,37.142857 0 0 1 1.85156,-2.45118 24.642857,37.142857 0 0 1 2.00391,-2.16015 24.642857,37.142857 0 0 1 2.13672,-1.8457 24.642857,37.142857 0 0 1 2.24804,-1.51758 24.642857,37.142857 0 0 1 2.33789,-1.16992 24.642857,37.142857 0 0 1 2.40235,-0.81446 24.642857,37.142857 0 0 1 2.44531,-0.44726 24.642857,37.142857 0 0 1 1.74414,-0.0918 24.642857,37.142857 0 0 1 2.45899,0.18555 24.642857,37.142857 0 0 1 2.43554,0.55468 24.642857,37.142857 0 0 1 2.38672,0.91797 24.642857,37.142857 0 0 1 2.31445,1.27344 24.642857,37.142857 0 0 1 2.21876,1.61523 24.642857,37.142857 0 0 1 2.0996,1.93946 24.642857,37.142857 0 0 1 1,1.14648 24.285715,37.142857 0 0 0 -21.69921,-20.49023 z"
         id="path4215"
         inkscape:connector-curvature="0" />
    </g>
    <g
       id="g4217"
       transform="matrix(1,0,0,0.64422807,134.28572,256.04783)">
      <path
         id="path4219"
         d="m 320.27148,467.13867 a 24.642857,37.142857 0 0 0 -1,-1.14648 24.642857,37.142857 0 0 0 -2.0996,-1.93946 24.642857,37.142857 0 0 0 -2.21876,-1.61523 24.642857,37.142857 0 0 0 -2.31445,-1.27344 24.642857,37.142857 0 0 0 -2.38672,-0.91797 24.642857,37.142857 0 0 0 -2.43554,-0.55468 24.642857,37.142857 0 0 0 -2.45899,-0.18555 24.642857,37.142857 0 0 0 -1.74414,0.0918 24.642857,37.142857 0 0 0 -2.44531,0.44726 24.642857,37.142857 0 0 0 -2.40235,0.81446 24.642857,37.142857 0 0 0 -2.33789,1.16992 24.642857,37.142857 0 0 0 -2.24804,1.51758 24.642857,37.142857 0 0 0 -2.13672,1.8457 24.642857,37.142857 0 0 0 -2.00391,2.16015 24.642857,37.142857 0 0 0 -1.85156,2.45118 24.642857,37.142857 0 0 0 -1.67773,2.71679 24.642857,37.142857 0 0 0 -1.49219,2.95508 24.642857,37.142857 0 0 0 -1.28711,3.16406 24.642857,37.142857 0 0 0 -1.07031,3.34375 24.642857,37.142857 0 0 0 -0.84571,3.48829 24.642857,37.142857 0 0 0 -0.60937,3.59765 24.642857,37.142857 0 0 0 -0.36719,3.66992 24.642857,37.142857 0 0 0 -0.12305,3.70899 24.642857,37.142857 0 0 0 0.0606,2.62695 24.642857,37.142857 0 0 0 0.29688,3.68555 24.642857,37.142857 0 0 0 0.54101,3.62304 24.642857,37.142857 0 0 0 0.77539,3.52344 24.642857,37.142857 0 0 0 0.66406,2.24024 24.285715,37.142857 0 0 0 15.51954,8.58593 24.285715,37.142857 0 0 0 24.28515,-37.14257 24.285715,37.142857 0 0 0 -2.58594,-16.65235 z"
         style="fill:#0055d4;stroke:none;stroke-width:4;stroke-miterlimit:4;stroke-dasharray:none;stroke-opacity:1"
         inkscape:connector-curvature="0" />
      <path
         id="path4221"
         d="m 298.57227,446.64844 a 24.285715,37.142857 0 0 0 -24.28711,37.14258 24.285715,37.142857 0 0 0 8.76757,28.55664 24.642857,37.142857 0 0 1 -0.66406,-2.24024 24.642857,37.142857 0 0 1 -0.77539,-3.52344 24.642857,37.142857 0 0 1 -0.54101,-3.62304 24.642857,37.142857 0 0 1 -0.29688,-3.68555 24.642857,37.142857 0 0 1 -0.0606,-2.62695 24.642857,37.142857 0 0 1 0.12305,-3.70899 24.642857,37.142857 0 0 1 0.36719,-3.66992 24.642857,37.142857 0 0 1 0.60937,-3.59765 24.642857,37.142857 0 0 1 0.84571,-3.48829 24.642857,37.142857 0 0 1 1.07031,-3.34375 24.642857,37.142857 0 0 1 1.28711,-3.16406 24.642857,37.142857 0 0 1 1.49219,-2.95508 24.642857,37.142857 0 0 1 1.67773,-2.71679 24.642857,37.142857 0 0 1 1.85156,-2.45118 24.642857,37.142857 0 0 1 2.00391,-2.16015 24.642857,37.142857 0 0 1 2.13672,-1.8457 24.642857,37.142857 0 0 1 2.24804,-1.51758 24.642857,37.142857 0 0 1 2.33789,-1.16992 24.642857,37.142857 0 0 1 2.40235,-0.81446 24.642857,37.142857 0 0 1 2.44531,-0.44726 24.642857,37.142857 0 0 1 1.74414,-0.0918 24.642857,37.142857 0 0 1 2.45899,0.18555 24.642857,37.142857 0 0 1 2.43554,0.55468 24.642857,37.142857 0 0 1 2.38672,0.91797 24.642857,37.142857 0 0 1 2.31445,1.27344 24.642857,37.142857 0 0 1 2.21876,1.61523 24.642857,37.142857 0 0 1 2.0996,1.93946 24.642857,37.142857 0 0 1 1,1.14648 24.285715,37.142857 0 0 0 -21.69921,-20.49023 z"
         style="fill:#003380;stroke:none;stroke-width:4;stroke-miterlimit:4;stroke-dasharray:none;stroke-opacity:1"
         inkscape:connector-curvature="0" />
    </g>
    <g
       transform="translate(45.714289,110)"
       id="g4223">
      <path
         inkscape:connector-curvature="0"
         style="fill:#0055d4;stroke:none;stroke-width:4;stroke-miterlimit:4;stroke-dasharray:none;stroke-opacity:1"
         d="m 320.27148,467.13867 a 24.642857,37.142857 0 0 0 -1,-1.14648 24.642857,37.142857 0 0 0 -2.0996,-1.93946 24.642857,37.142857 0 0 0 -2.21876,-1.61523 24.642857,37.142857 0 0 0 -2.31445,-1.27344 24.642857,37.142857 0 0 0 -2.38672,-0.91797 24.642857,37.142857 0 0 0 -2.43554,-0.55468 24.642857,37.142857 0 0 0 -2.45899,-0.18555 24.642857,37.142857 0 0 0 -1.74414,0.0918 24.642857,37.142857 0 0 0 -2.44531,0.44726 24.642857,37.142857 0 0 0 -2.40235,0.81446 24.642857,37.142857 0 0 0 -2.33789,1.16992 24.642857,37.142857 0 0 0 -2.24804,1.51758 24.642857,37.142857 0 0 0 -2.13672,1.8457 24.642857,37.142857 0 0 0 -2.00391,2.16015 24.642857,37.142857 0 0 0 -1.85156,2.45118 24.642857,37.142857 0 0 0 -1.67773,2.71679 24.642857,37.142857 0 0 0 -1.49219,2.95508 24.642857,37.142857 0 0 0 -1.28711,3.16406 24.642857,37.142857 0 0 0 -1.07031,3.34375 24.642857,37.142857 0 0 0 -0.84571,3.48829 24.642857,37.142857 0 0 0 -0.60937,3.59765 24.642857,37.142857 0 0 0 -0.36719,3.66992 24.642857,37.142857 0 0 0 -0.12305,3.70899 24.642857,37.142857 0 0 0 0.0606,2.62695 24.642857,37.142857 0 0 0 0.29688,3.68555 24.642857,37.142857 0 0 0 0.54101,3.62304 24.642857,37.142857 0 0 0 0.77539,3.52344 24.642857,37.142857 0 0 0 0.66406,2.24024 24.285715,37.142857 0 0 0 15.51954,8.58593 24.285715,37.142857 0 0 0 24.28515,-37.14257 24.285715,37.142857 0 0 0 -2.58594,-16.65235 z"
         id="path4225" />
      <path
         inkscape:connector-curvature="0"
         style="fill:#003380;stroke:none;stroke-width:4;stroke-miterlimit:4;stroke-dasharray:none;stroke-opacity:1"
         d="m 298.57227,446.64844 a 24.285715,37.142857 0 0 0 -24.28711,37.14258 24.285715,37.142857 0 0 0 8.76757,28.55664 24.642857,37.142857 0 0 1 -0.66406,-2.24024 24.642857,37.142857 0 0 1 -0.77539,-3.52344 24.642857,37.142857 0 0 1 -0.54101,-3.62304 24.642857,37.142857 0 0 1 -0.29688,-3.68555 24.642857,37.142857 0 0 1 -0.0606,-2.62695 24.642857,37.142857 0 0 1 0.12305,-3.70899 24.642857,37.142857 0 0 1 0.36719,-3.66992 24.642857,37.142857 0 0 1 0.60937,-3.59765 24.642857,37.142857 0 0 1 0.84571,-3.48829 24.642857,37.142857 0 0 1 1.07031,-3.34375 24.642857,37.142857 0 0 1 1.28711,-3.16406 24.642857,37.142857 0 0 1 1.49219,-2.95508 24.642857,37.142857 0 0 1 1.67773,-2.71679 24.642857,37.142857 0 0 1 1.85156,-2.45118 24.642857,37.142857 0 0 1 2.00391,-2.16015 24.642857,37.142857 0 0 1 2.13672,-1.8457 24.642857,37.142857 0 0 1 2.24804,-1.51758 24.642857,37.142857 0 0 1 2.33789,-1.16992 24.642857,37.142857 0 0 1 2.40235,-0.81446 24.642857,37.142857 0 0 1 2.44531,-0.44726 24.642857,37.142857 0 0 1 1.74414,-0.0918 24.642857,37.142857 0 0 1 2.45899,0.18555 24.642857,37.142857 0 0 1 2.43554,0.55468 24.642857,37.142857 0 0 1 2.38672,0.91797 24.642857,37.142857 0 0 1 2.31445,1.27344 24.642857,37.142857 0 0 1 2.21876,1.61523 24.642857,37.142857 0 0 1 2.0996,1.93946 24.642857,37.142857 0 0 1 1,1.14648 24.285715,37.142857 0 0 0 -21.69921,-20.49023 z"
         id="path4227" />
    </g>
    <g
       id="g4229"
       transform="matrix(0.77941577,0,0,0.82692176,154.07441,31.590842)">
      <path
         id="path4231"
         d="m 320.27148,467.13867 a 24.642857,37.142857 0 0 0 -1,-1.14648 24.642857,37.142857 0 0 0 -2.0996,-1.93946 24.642857,37.142857 0 0 0 -2.21876,-1.61523 24.642857,37.142857 0 0 0 -2.31445,-1.27344 24.642857,37.142857 0 0 0 -2.38672,-0.91797 24.642857,37.142857 0 0 0 -2.43554,-0.55468 24.642857,37.142857 0 0 0 -2.45899,-0.18555 24.642857,37.142857 0 0 0 -1.74414,0.0918 24.642857,37.142857 0 0 0 -2.44531,0.44726 24.642857,37.142857 0 0 0 -2.40235,0.81446 24.642857,37.142857 0 0 0 -2.33789,1.16992 24.642857,37.142857 0 0 0 -2.24804,1.51758 24.642857,37.142857 0 0 0 -2.13672,1.8457 24.642857,37.142857 0 0 0 -2.00391,2.16015 24.642857,37.142857 0 0 0 -1.85156,2.45118 24.642857,37.142857 0 0 0 -1.67773,2.71679 24.642857,37.142857 0 0 0 -1.49219,2.95508 24.642857,37.142857 0 0 0 -1.28711,3.16406 24.642857,37.142857 0 0 0 -1.07031,3.34375 24.642857,37.142857 0 0 0 -0.84571,3.48829 24.642857,37.142857 0 0 0 -0.60937,3.59765 24.642857,37.142857 0 0 0 -0.36719,3.66992 24.642857,37.142857 0 0 0 -0.12305,3.70899 24.642857,37.142857 0 0 0 0.0606,2.62695 24.642857,37.142857 0 0 0 0.29688,3.68555 24.642857,37.142857 0 0 0 0.54101,3.62304 24.642857,37.142857 0 0 0 0.77539,3.52344 24.642857,37.142857 0 0 0 0.66406,2.24024 24.285715,37.142857 0 0 0 15.51954,8.58593 24.285715,37.142857 0 0 0 24.28515,-37.14257 24.285715,37.142857 0 0 0 -2.58594,-16.65235 z"
         style="fill:#0055d4;stroke:none;stroke-width:4;stroke-miterlimit:4;stroke-dasharray:none;stroke-opacity:1"
         inkscape:connector-curvature="0" />
      <path
         id="path4233"
         d="m 298.57227,446.64844 a 24.285715,37.142857 0 0 0 -24.28711,37.14258 24.285715,37.142857 0 0 0 8.76757,28.55664 24.642857,37.142857 0 0 1 -0.66406,-2.24024 24.642857,37.142857 0 0 1 -0.77539,-3.52344 24.642857,37.142857 0 0 1 -0.54101,-3.62304 24.642857,37.142857 0 0 1 -0.29688,-3.68555 24.642857,37.142857 0 0 1 -0.0606,-2.62695 24.642857,37.142857 0 0 1 0.12305,-3.70899 24.642857,37.142857 0 0 1 0.36719,-3.66992 24.642857,37.142857 0 0 1 0.60937,-3.59765 24.642857,37.142857 0 0 1 0.84571,-3.48829 24.642857,37.142857 0 0 1 1.07031,-3.34375 24.642857,37.142857 0 0 1 1.28711,-3.16406 24.642857,37.142857 0 0 1 1.49219,-2.95508 24.642857,37.142857 0 0 1 1.67773,-2.71679 24.642857,37.142857 0 0 1 1.85156,-2.45118 24.642857,37.142857 0 0 1 2.00391,-2.16015 24.642857,37.142857 0 0 1 2.13672,-1.8457 24.642857,37.142857 0 0 1 2.24804,-1.51758 24.642857,37.142857 0 0 1 2.33789,-1.16992 24.642857,37.142857 0 0 1 2.40235,-0.81446 24.642857,37.142857 0 0 1 2.44531,-0.44726 24.642857,37.142857 0 0 1 1.74414,-0.0918 24.642857,37.142857 0 0 1 2.45899,0.18555 24.642857,37.142857 0 0 1 2.43554,0.55468 24.642857,37.142857 0 0 1 2.38672,0.91797 24.642857,37.142857 0 0 1 2.31445,1.27344 24.642857,37.142857 0 0 1 2.21876,1.61523 24.642857,37.142857 0 0 1 2.0996,1.93946 24.642857,37.142857 0 0 1 1,1.14648 24.285715,37.142857 0 0 0 -21.69921,-20.49023 z"
         style="fill:#003380;stroke:none;stroke-width:4;stroke-miterlimit:4;stroke-dasharray:none;stroke-opacity:1"
         inkscape:connector-curvature="0" />
    </g>
  </g>
</svg>
